<?xml version="1.0" encoding="utf-8"?>
<!-- Generator: Adobe Illustrator 28.0.0, SVG Export Plug-In . SVG Version: 6.00 Build 0)  -->
<svg version="1.1" id="Layer_1" xmlns="http://www.w3.org/2000/svg" xmlns:xlink="http://www.w3.org/1999/xlink" x="0px" y="0px"
	 viewBox="0 0 1682.4 427.9" style="enable-background:new 0 0 1682.4 427.9;" xml:space="preserve">
<style type="text/css">
	.st0{fill:#512DA8;}
</style>
<g>
	<g>
		<g>
			<path d="M486.2,352.5l-50.5-193.1h43.5l38.1,161.7h-11.7l40.2-161.7h41.5l40.2,161.7h-11.7l38.1-161.7h43.5l-50.5,193.1h-46.7
				l-40.4-155.5h13.5l-40.4,155.5H486.2z"/>
			<path d="M714.6,352.5V156.3h38.9v82.7l-4.7-6.2c3.3-8.5,8.6-14.7,15.9-18.8c7.3-4.1,15.9-6.1,25.8-6.1c10.7,0,20.1,2.2,28.1,6.7
				c8,4.5,14.3,10.8,18.8,18.8c4.5,8,6.7,17.4,6.7,28.1v91h-38.9v-82.7c0-5.5-1.1-10.3-3.2-14.3c-2.2-4-5.2-7.1-9.1-9.3
				c-3.9-2.2-8.4-3.4-13.6-3.4c-5,0-9.5,1.1-13.5,3.4c-4,2.2-7,5.4-9.2,9.3c-2.2,4-3.2,8.7-3.2,14.3v82.7H714.6z"/>
			<path d="M940,355.6c-14,0-26.7-3.2-38.2-9.6c-11.5-6.4-20.6-15.2-27.5-26.3c-6.8-11.1-10.2-23.8-10.2-38c0-14.3,3.4-27,10.2-38.1
				c6.8-11.1,16-19.8,27.5-26.2c11.5-6.4,24.2-9.6,38.2-9.6s26.7,3.2,38.1,9.6c11.4,6.4,20.5,15.1,27.3,26.2
				c6.8,11.1,10.2,23.8,10.2,38.1c0,14.2-3.4,26.8-10.2,38c-6.8,11.1-15.9,19.9-27.3,26.3C966.7,352.4,954,355.6,940,355.6z
				 M940,320.6c7.1,0,13.3-1.6,18.5-4.9c5.3-3.3,9.4-7.9,12.4-13.7c3-5.9,4.5-12.6,4.5-20.2c0-7.6-1.5-14.3-4.5-20.1
				c-3-5.8-7.2-10.4-12.4-13.7c-5.3-3.4-11.4-5.1-18.5-5.1c-7.1,0-13.3,1.7-18.7,5.1c-5.4,3.4-9.5,7.9-12.6,13.7
				c-3,5.8-4.5,12.5-4.5,20.1c0,7.6,1.5,14.3,4.5,20.2c3,5.9,7.2,10.5,12.6,13.7C926.7,318.9,933,320.6,940,320.6z"/>
			<path d="M1041.4,352.5V159.4h81.6c13.3,0,24.7,2.2,34.2,6.7c9.5,4.5,16.8,10.9,21.8,19.3c5,8.4,7.5,18.5,7.5,30.5
				c0,8.5-2.3,16.5-7,24.2c-4.7,7.7-12.4,14.1-23.1,19.3v-19.7c10.2,4,18.1,8.7,23.6,14.3c5.5,5.5,9.3,11.5,11.4,18
				c2.1,6.5,3.1,13.3,3.1,20.3c0,19-6.3,33.8-18.9,44.3c-12.6,10.5-30.2,15.8-52.6,15.8H1041.4z M1081.6,231.9h44.3
				c6.2,0,11.2-1.8,14.9-5.3c3.7-3.5,5.6-8.2,5.6-14.1c0-5.9-1.9-10.6-5.6-14.1c-3.7-3.5-8.7-5.3-14.9-5.3h-44.3V231.9z
				 M1081.6,317.5h46.1c8.1,0,14.6-2.3,19.4-7c4.8-4.7,7.3-10.7,7.3-18.1c0-7.6-2.4-13.7-7.3-18.4c-4.8-4.7-11.3-7-19.4-7h-46.1
				V317.5z"/>
			<path d="M1217.4,198.2v-38.9h38.9v38.9H1217.4z M1217.4,352.5V210.9h38.9v141.5H1217.4z"/>
			<path d="M1351.4,355.6c-13.8,0-26.2-3.3-37.1-9.8c-10.9-6.6-19.5-15.5-25.8-26.7c-6.3-11.2-9.5-23.7-9.5-37.3
				c0-13.8,3.2-26.3,9.6-37.5c6.4-11.1,15-20,25.9-26.6c10.9-6.6,23.1-9.8,36.5-9.8c10.4,0,19.6,1.9,27.6,5.8
				c8,3.9,14.4,9.4,19,16.5l-6,7.8v-78.5h38.9v193.1h-36.3v-25.9l3.6,8c-4.8,6.9-11.4,12.1-19.7,15.7
				C1370,353.8,1361,355.6,1351.4,355.6z M1356,320.6c7.1,0,13.3-1.6,18.7-4.9c5.4-3.3,9.5-7.9,12.6-13.7c3-5.9,4.5-12.6,4.5-20.2
				c0-7.6-1.5-14.3-4.5-20.2c-3-5.9-7.2-10.5-12.6-13.7c-5.4-3.3-11.6-4.9-18.7-4.9c-7.1,0-13.4,1.7-19,5.1
				c-5.6,3.4-10,7.9-13.1,13.7c-3.1,5.8-4.7,12.5-4.7,20.1c0,7.6,1.6,14.3,4.7,20.2c3.1,5.9,7.5,10.5,13.1,13.7
				C1342.6,318.9,1348.9,320.6,1356,320.6z"/>
			<path d="M1459.2,352.5V159.4h38.9v193.1H1459.2z"/>
			<path d="M1548.6,410c-4.1,0-8.2-0.3-12.1-1c-3.9-0.7-7.3-1.8-10.2-3.4v-31.9c2.4,0.7,5.3,1.3,8.6,1.8c3.3,0.5,6.3,0.8,9.1,0.8
				c7.6,0,13-1.8,16.3-5.4c3.3-3.6,6-7.8,8-12.4l9.6-22l-0.5,32.4l-62.2-157.8h41.7l41.2,112.2h-15.6l41.2-112.2h41.7l-60.6,154.7
				c-3.8,9.8-8.5,18.1-14,24.6c-5.5,6.6-11.8,11.5-18.8,14.8C1565,408.4,1557.2,410,1548.6,410z"/>
		</g>
	</g>
</g>
<polygon points="173.7,329 173.6,329.1 173.6,329 "/>
<polygon points="246,82.9 245.8,82.9 245.9,82.8 245.9,82.8 "/>
<path d="M245.9,35.2l0,47.6l-0.1,0.1l-50.2,45L176.8,266l-3.1-0.9l-9.7-2.9l-4.2,14.4l13.8,0.5l8,0.3l-8,27.2l-0.5,1.8l-9.1,4.9
	l9.6,17.5l-134-0.1c-12.7,0-22.9-10.2-22.9-22.9l0.2-271c0-12.7,10.3-22.9,22.9-22.9L223,12.3C235.7,12.3,245.9,22.5,245.9,35.2z"/>
<polygon points="245.9,82.8 245.9,82.9 245.8,82.9 "/>
<path class="st0" d="M402.8,105.9l-0.2,271c0,12.7-10.2,22.9-22.9,22.9l-183.3-0.1c-12.7,0-22.9-10.2-22.9-22.9l0-47.7l0,0l17.5-9.5
	l-5-9.1l8.5-29l18.9,11.1l4.2-14.4l-12.8-3.7l40.7-87.6l18-38.8l-17.9-65l134,0.1C392.6,83,402.8,93.2,402.8,105.9z"/>
<polygon points="173.7,329 173.6,329.1 173.6,329 "/>
</svg>
