<svg id="svg" version="1.1" xmlns="http://www.w3.org/2000/svg" xmlns:xlink="http://www.w3.org/1999/xlink" width="400" height="402.6666666666667" viewBox="0, 0, 400,402.6666666666667"><g id="svgg"><path id="path0" d="M33.365 1.577 C 30.051 2.370,30.254 3.878,33.700 4.064 C 37.888 4.292,38.906 4.067,38.695 2.964 C 38.596 2.447,38.657 2.112,38.830 2.219 C 39.003 2.326,39.257 2.232,39.394 2.010 C 39.560 1.741,93.361 1.610,201.921 1.617 C 312.010 1.624,363.975 1.758,363.500 2.033 C 361.324 3.297,362.647 4.000,367.200 4.000 C 371.982 4.000,372.742 3.567,370.518 2.109 C 369.376 1.361,36.462 0.835,33.365 1.577 M12.644 4.613 C 11.336 5.921,12.164 10.441,13.875 11.338 L 14.914 11.882 13.711 12.301 C 12.688 12.658,11.641 14.562,12.171 15.103 C 12.718 15.660,14.773 14.562,14.878 13.658 C 14.958 12.966,15.274 12.566,15.800 12.488 C 17.819 12.188,18.363 11.947,18.581 11.260 C 18.852 10.407,20.410 9.600,21.785 9.600 C 22.840 9.600,23.143 9.080,22.882 7.715 C 22.741 6.981,22.445 6.800,21.379 6.800 C 20.173 6.800,20.039 6.680,19.925 5.500 L 19.800 4.200 16.544 4.085 C 13.974 3.993,13.152 4.105,12.644 4.613 M25.453 4.919 C 25.116 6.206,25.609 6.800,27.013 6.800 C 28.391 6.800,28.826 6.171,28.472 4.691 C 28.229 3.675,25.729 3.864,25.453 4.919 M374.173 4.900 C 374.265 5.395,374.354 6.025,374.370 6.300 C 374.424 7.196,377.200 6.934,377.200 6.033 C 377.200 4.504,376.744 4.000,375.360 4.000 C 374.172 4.000,374.026 4.111,374.173 4.900 M379.600 8.218 C 379.600 9.627,379.612 9.637,381.300 9.596 C 382.235 9.573,383.490 9.629,384.089 9.721 C 384.688 9.813,385.079 9.728,384.959 9.533 C 384.838 9.338,384.528 9.205,384.270 9.237 C 383.171 9.372,382.849 9.134,382.600 8.000 C 382.165 6.017,379.600 6.204,379.600 8.218 M9.558 17.850 C 9.217 18.262,9.263 18.449,9.753 18.637 C 10.106 18.773,10.294 19.048,10.170 19.248 C 10.046 19.449,9.777 19.509,9.572 19.383 C 9.368 19.256,9.200 19.321,9.200 19.526 C 9.200 19.732,8.660 20.008,8.000 20.140 C 6.079 20.524,6.173 23.311,8.100 23.125 C 9.287 23.011,9.411 22.869,9.524 21.500 C 9.644 20.050,9.879 19.840,11.233 19.968 C 12.000 20.040,12.084 18.918,11.333 18.630 C 10.700 18.387,10.616 17.600,11.224 17.600 C 11.457 17.600,11.536 17.780,11.400 18.000 C 11.264 18.220,11.358 18.400,11.610 18.400 C 11.861 18.400,11.992 18.175,11.900 17.900 C 11.673 17.218,10.110 17.185,9.558 17.850 M390.635 18.167 C 390.231 19.672,390.385 19.948,391.700 20.075 C 392.843 20.185,393.015 20.357,393.125 21.500 C 393.271 23.014,395.600 23.560,395.600 22.080 C 395.600 21.158,394.842 20.400,393.920 20.400 C 393.467 20.400,393.200 20.104,393.200 19.600 C 393.200 19.160,392.975 18.797,392.700 18.794 C 392.315 18.789,392.319 18.712,392.719 18.459 C 393.144 18.189,393.144 18.055,392.719 17.719 C 391.878 17.055,390.875 17.270,390.635 18.167 M4.420 28.576 C 3.438 29.759,4.062 31.399,5.500 31.414 C 6.766 31.427,6.800 31.383,6.800 29.714 C 6.800 27.866,5.518 27.253,4.420 28.576 M396.000 29.800 C 396.000 31.564,396.032 31.610,397.190 31.522 C 399.306 31.361,399.285 28.238,397.167 28.076 C 396.036 27.990,396.000 28.044,396.000 29.800 M197.388 53.547 C 194.473 54.307,191.291 56.909,188.067 61.173 C 184.694 65.633,186.758 75.218,192.053 79.683 C 193.742 81.108,194.008 81.519,193.801 82.382 C 193.577 83.313,190.040 90.935,188.503 93.800 C 188.149 94.460,187.520 95.720,187.105 96.600 C 186.690 97.480,186.094 98.650,185.781 99.200 C 185.467 99.750,184.840 101.010,184.387 102.000 C 183.933 102.990,183.299 104.250,182.978 104.800 C 182.656 105.350,181.485 107.690,180.376 110.000 C 178.417 114.079,177.852 115.201,176.602 117.500 C 176.273 118.105,175.729 119.230,175.395 120.000 C 175.060 120.770,174.524 121.850,174.204 122.400 C 173.884 122.950,173.255 124.210,172.806 125.200 C 172.357 126.190,171.723 127.450,171.398 128.000 C 171.073 128.550,170.545 129.630,170.225 130.400 C 169.905 131.170,169.372 132.250,169.041 132.800 C 168.709 133.350,168.080 134.610,167.643 135.600 C 167.205 136.590,166.580 137.850,166.253 138.400 C 165.926 138.950,164.652 141.470,163.423 144.000 C 162.194 146.530,161.028 148.870,160.831 149.200 C 160.057 150.503,156.800 157.537,156.800 157.908 C 156.800 158.125,156.537 158.520,156.215 158.787 C 155.893 159.054,155.250 160.291,154.785 161.536 C 154.319 162.781,153.673 164.095,153.348 164.455 C 153.023 164.815,152.415 166.010,151.998 167.109 C 151.580 168.209,150.780 169.784,150.219 170.610 C 149.659 171.436,149.200 172.421,149.200 172.800 C 149.200 173.179,148.724 174.188,148.142 175.044 C 147.560 175.900,146.915 177.230,146.709 178.000 C 146.502 178.770,145.878 180.070,145.320 180.889 C 143.374 183.748,144.328 185.540,148.342 186.559 C 149.739 186.914,151.359 187.536,151.942 187.942 C 152.524 188.347,153.900 188.895,155.000 189.161 C 156.100 189.426,157.810 190.056,158.800 190.560 C 159.790 191.064,161.500 191.698,162.600 191.969 C 163.700 192.239,165.140 192.787,165.800 193.185 C 166.460 193.584,168.080 194.216,169.400 194.590 C 170.720 194.965,172.340 195.591,173.000 195.982 C 173.660 196.373,175.100 196.910,176.200 197.176 C 177.300 197.443,178.785 198.021,179.500 198.463 C 180.214 198.904,182.233 199.515,183.985 199.821 C 185.737 200.127,188.032 200.822,189.085 201.366 C 190.138 201.910,191.488 202.473,192.084 202.617 C 192.680 202.761,193.372 203.125,193.622 203.426 C 194.180 204.099,194.782 203.436,181.137 217.199 L 170.474 227.954 170.810 229.446 C 170.996 230.267,171.410 231.086,171.731 231.265 C 172.052 231.445,173.071 232.224,173.995 232.996 C 174.920 233.768,175.854 234.400,176.071 234.400 C 176.289 234.400,177.847 234.956,179.533 235.636 C 182.877 236.983,189.507 237.239,190.909 236.075 C 191.241 235.800,192.580 235.157,193.885 234.645 C 195.190 234.133,196.695 233.329,197.229 232.857 C 197.998 232.178,205.461 225.032,210.642 220.015 C 211.105 219.567,211.682 219.200,211.924 219.200 C 212.464 219.200,244.591 251.221,246.110 253.273 C 249.303 257.588,244.720 262.823,239.489 260.834 C 238.959 260.632,233.220 255.177,226.735 248.711 C 212.015 234.034,211.593 233.753,210.005 237.587 C 209.267 239.370,210.444 240.795,222.968 253.288 C 235.306 265.595,235.897 266.374,235.030 269.200 C 234.429 271.157,234.217 271.410,232.263 272.503 L 230.533 273.469 228.448 272.549 C 226.744 271.797,224.361 269.612,215.382 260.571 C 202.188 247.285,201.970 247.098,200.037 247.446 C 194.993 248.353,196.069 249.960,212.976 266.755 C 225.445 279.142,225.819 279.852,221.810 283.548 C 219.346 285.819,217.660 285.609,214.200 282.598 C 212.880 281.449,210.340 279.775,208.555 278.878 C 205.333 277.258,203.208 275.353,203.191 274.069 C 203.155 271.342,198.821 267.202,195.343 266.574 C 192.866 266.126,192.500 265.783,192.205 263.637 C 191.670 259.749,187.071 255.200,183.675 255.200 C 182.612 255.200,182.112 254.541,179.800 250.088 C 174.719 240.304,167.756 240.198,157.973 249.755 C 154.427 253.219,153.408 254.000,152.440 254.000 C 150.394 254.000,145.641 252.843,143.472 251.817 C 142.328 251.276,140.461 250.633,139.322 250.389 C 136.286 249.738,136.286 249.738,135.944 241.067 C 135.612 232.687,135.435 230.943,134.564 227.509 C 134.244 226.249,133.721 223.233,133.401 220.808 C 133.081 218.382,132.546 215.869,132.212 215.222 C 131.877 214.576,131.234 212.461,130.782 210.523 C 130.330 208.586,129.712 206.620,129.408 206.156 C 129.104 205.692,128.555 204.252,128.189 202.956 C 127.823 201.660,127.116 199.968,126.619 199.195 C 126.121 198.422,125.578 197.342,125.412 196.795 C 125.246 196.248,124.591 194.878,123.955 193.751 C 123.320 192.625,122.800 191.423,122.800 191.082 C 122.800 190.741,122.346 189.922,121.792 189.263 C 121.238 188.605,120.415 187.286,119.964 186.333 C 119.512 185.380,118.481 183.597,117.672 182.372 C 116.862 181.147,115.810 179.527,115.334 178.772 C 114.097 176.812,112.549 174.773,109.793 171.478 C 108.470 169.895,106.913 167.970,106.335 167.200 C 104.599 164.889,98.664 159.116,94.617 155.800 C 93.542 154.920,91.904 153.570,90.975 152.800 C 90.046 152.030,88.187 150.614,86.843 149.654 C 85.499 148.694,84.400 147.763,84.400 147.585 C 84.400 147.408,83.765 147.053,82.990 146.797 C 82.214 146.541,81.060 145.894,80.426 145.360 C 79.791 144.826,78.670 144.134,77.936 143.822 C 77.201 143.511,75.980 142.793,75.222 142.228 C 74.465 141.663,73.635 141.200,73.378 141.200 C 73.122 141.200,72.252 140.752,71.445 140.205 C 70.639 139.658,69.579 139.107,69.090 138.981 C 66.928 138.425,66.762 138.010,66.676 132.940 C 66.445 119.252,52.170 112.518,42.142 121.366 C 32.258 130.087,37.417 145.918,50.437 146.821 C 54.970 147.136,55.319 147.329,56.000 149.908 C 56.274 150.948,56.905 152.970,57.401 154.400 C 57.898 155.830,58.435 157.990,58.595 159.200 C 58.756 160.410,59.386 162.930,59.996 164.800 C 60.606 166.670,61.234 169.280,61.392 170.600 C 61.550 171.920,62.090 173.990,62.594 175.200 C 63.097 176.410,63.705 178.880,63.944 180.688 C 64.184 182.496,64.811 185.016,65.339 186.288 C 65.866 187.560,66.494 189.957,66.734 191.615 C 66.974 193.273,67.524 195.433,67.957 196.415 C 68.391 197.397,68.961 199.460,69.225 201.000 C 69.489 202.540,70.060 204.700,70.494 205.800 C 70.928 206.900,71.618 209.642,72.028 211.894 C 72.438 214.146,73.068 216.558,73.428 217.253 C 73.787 217.949,74.343 220.138,74.661 222.119 C 74.980 224.099,75.520 226.259,75.862 226.919 C 76.203 227.579,76.818 229.980,77.228 232.254 C 77.638 234.528,78.250 236.923,78.588 237.577 C 78.926 238.231,79.486 240.529,79.831 242.683 C 80.177 244.837,80.874 247.590,81.381 248.800 C 81.888 250.010,82.519 252.406,82.784 254.123 C 83.049 255.841,83.595 258.001,83.997 258.923 C 84.400 259.846,85.002 262.340,85.337 264.467 C 85.672 266.594,86.246 268.916,86.614 269.627 C 86.981 270.338,87.612 272.738,88.016 274.960 C 88.419 277.182,89.019 279.540,89.349 280.200 C 89.679 280.860,90.241 283.092,90.597 285.161 C 90.954 287.229,91.573 289.569,91.973 290.361 C 92.372 291.152,93.000 293.580,93.368 295.755 C 94.697 303.623,96.102 305.752,100.525 306.598 C 102.228 306.924,104.183 307.481,104.869 307.835 C 105.554 308.190,108.295 308.826,110.958 309.247 C 113.621 309.669,116.610 310.287,117.600 310.620 C 118.590 310.953,122.100 311.495,125.400 311.824 C 128.700 312.153,133.230 312.773,135.467 313.201 C 137.704 313.629,142.834 314.168,146.867 314.399 C 155.454 314.890,162.839 315.477,167.600 316.046 C 169.470 316.270,182.201 316.552,195.891 316.673 C 219.997 316.887,223.816 316.790,237.800 315.612 C 240.220 315.408,245.350 315.048,249.200 314.811 C 259.659 314.169,264.937 313.649,267.842 312.976 C 269.278 312.643,273.197 312.118,276.551 311.811 C 280.045 311.490,283.663 310.917,285.024 310.469 C 286.331 310.038,289.020 309.464,291.000 309.193 C 292.980 308.922,295.500 308.368,296.600 307.963 C 297.700 307.558,299.860 306.939,301.400 306.587 C 304.738 305.824,305.737 305.241,306.296 303.731 C 307.542 300.366,309.172 294.749,309.408 293.007 C 309.556 291.911,310.116 289.849,310.652 288.424 C 311.188 287.000,311.806 284.567,312.026 283.017 C 312.246 281.468,312.853 279.120,313.375 277.800 C 313.898 276.480,314.527 274.075,314.773 272.455 C 315.020 270.835,315.573 268.738,316.003 267.794 C 316.432 266.851,317.049 264.487,317.373 262.540 C 317.698 260.593,318.329 258.059,318.776 256.909 C 319.224 255.759,319.782 253.509,320.017 251.909 C 320.252 250.309,320.806 248.129,321.248 247.065 C 321.690 246.001,322.324 243.573,322.656 241.669 C 322.989 239.765,323.598 237.396,324.010 236.404 C 324.423 235.412,325.051 232.993,325.406 231.030 C 325.761 229.066,326.297 226.985,326.597 226.406 C 326.897 225.827,327.515 223.419,327.971 221.057 C 328.427 218.694,329.067 216.243,329.395 215.610 C 329.722 214.977,330.267 212.781,330.606 210.730 C 330.945 208.678,331.579 206.190,332.014 205.200 C 332.450 204.210,333.063 202.021,333.377 200.335 C 333.691 198.649,334.302 196.489,334.735 195.535 C 335.167 194.581,335.734 192.386,335.994 190.658 C 336.255 188.930,336.883 186.410,337.390 185.058 C 337.897 183.706,338.516 181.280,338.765 179.667 C 339.014 178.054,339.641 175.714,340.158 174.467 C 340.675 173.220,341.223 171.047,341.376 169.638 C 341.529 168.228,342.066 165.978,342.570 164.638 C 343.074 163.297,343.702 160.940,343.966 159.400 C 344.230 157.860,344.976 155.049,345.623 153.153 C 346.270 151.256,346.800 149.343,346.800 148.902 C 346.800 147.640,347.504 147.372,352.106 146.881 C 356.731 146.388,357.156 146.239,359.897 144.146 C 365.334 139.996,367.495 129.860,363.939 125.186 C 361.695 122.239,359.689 120.265,358.200 119.542 C 357.320 119.115,356.110 118.496,355.512 118.167 C 351.001 115.684,340.449 119.395,338.356 124.199 C 338.164 124.640,337.600 125.508,337.104 126.129 C 336.291 127.144,336.186 127.778,336.060 132.413 C 335.972 135.659,335.750 137.705,335.460 137.938 C 335.207 138.141,333.290 139.210,331.200 140.312 C 327.800 142.106,326.315 142.957,321.620 145.800 C 319.270 147.223,315.011 150.135,314.600 150.600 C 314.380 150.848,312.849 152.067,311.197 153.307 C 308.053 155.668,299.819 163.167,298.819 164.580 C 298.316 165.291,294.172 170.239,292.103 172.599 C 290.698 174.201,288.914 176.671,286.901 179.800 C 285.769 181.560,284.468 183.484,284.011 184.076 C 283.554 184.667,282.896 185.837,282.550 186.676 C 282.204 187.514,281.683 188.470,281.394 188.800 C 281.104 189.130,280.552 190.210,280.167 191.200 C 279.782 192.190,279.146 193.466,278.752 194.036 C 278.359 194.606,277.662 196.074,277.203 197.300 C 276.745 198.525,276.122 199.732,275.820 199.983 C 275.518 200.234,275.050 201.376,274.780 202.520 C 274.511 203.664,273.886 205.410,273.392 206.400 C 272.899 207.390,272.207 209.597,271.855 211.305 C 271.503 213.012,270.937 214.949,270.596 215.608 C 270.255 216.268,269.698 218.831,269.358 221.304 C 269.019 223.777,268.411 227.330,268.007 229.200 C 267.603 231.070,267.145 235.210,266.991 238.400 C 266.641 245.602,265.866 246.861,261.200 247.805 C 260.430 247.960,258.723 248.608,257.406 249.244 C 252.837 251.450,253.313 251.714,242.495 240.974 C 237.273 235.790,230.930 229.502,228.400 227.001 C 225.870 224.500,221.910 220.535,219.600 218.190 C 217.290 215.845,214.646 213.417,213.725 212.794 L 212.050 211.661 210.538 212.431 C 209.707 212.855,205.511 216.684,201.213 220.940 C 194.331 227.755,193.150 228.760,191.305 229.369 C 190.152 229.750,189.107 230.227,188.981 230.431 C 188.463 231.269,183.246 230.837,181.168 229.784 C 178.721 228.544,178.325 227.749,179.633 226.700 C 180.904 225.681,183.065 223.605,187.095 219.531 C 201.782 204.682,201.495 204.915,207.600 202.928 C 208.590 202.606,210.570 201.826,212.000 201.195 C 213.430 200.564,215.565 199.953,216.744 199.838 C 217.923 199.722,219.501 199.265,220.252 198.823 C 221.002 198.380,222.647 197.720,223.908 197.356 C 225.168 196.991,227.010 196.275,228.000 195.765 C 228.990 195.254,230.694 194.638,231.787 194.397 C 232.880 194.155,234.320 193.621,234.987 193.209 C 235.654 192.797,237.100 192.244,238.200 191.981 C 239.300 191.717,240.920 191.095,241.800 190.599 C 242.680 190.103,244.030 189.569,244.800 189.413 C 245.570 189.257,247.370 188.616,248.800 187.988 C 250.230 187.361,252.416 186.568,253.658 186.225 C 255.789 185.637,258.687 183.286,258.278 182.476 C 258.201 182.324,256.386 178.600,254.244 174.200 C 252.102 169.800,250.108 165.750,249.812 165.200 C 249.516 164.650,247.714 161.050,245.808 157.200 C 243.901 153.350,242.074 149.750,241.747 149.200 C 241.420 148.650,240.795 147.390,240.357 146.400 C 239.920 145.410,239.306 144.150,238.993 143.600 C 238.307 142.394,235.179 136.103,234.022 133.600 C 233.564 132.610,232.923 131.350,232.598 130.800 C 232.273 130.250,231.745 129.170,231.425 128.400 C 231.105 127.630,230.581 126.550,230.259 126.000 C 229.938 125.450,228.812 123.200,227.757 121.000 C 226.702 118.800,225.540 116.550,225.175 116.000 C 224.810 115.450,224.281 114.280,224.000 113.400 C 223.719 112.520,223.184 111.350,222.812 110.800 C 222.439 110.250,220.648 106.740,218.831 103.000 C 217.014 99.260,215.266 95.750,214.947 95.200 C 214.628 94.650,214.104 93.615,213.783 92.900 C 212.736 90.565,211.984 89.018,211.405 88.000 C 208.442 82.800,208.354 81.684,210.740 79.542 C 211.808 78.584,213.383 76.720,214.240 75.400 L 215.800 73.000 215.800 68.000 L 215.800 63.000 214.341 60.784 C 210.415 54.819,203.630 51.922,197.388 53.547 M122.496 117.648 C 121.527 117.928,120.879 118.559,119.966 120.112 C 118.704 122.259,117.204 124.482,116.206 125.681 C 115.895 126.056,115.336 126.956,114.964 127.681 C 114.592 128.407,113.851 129.540,113.317 130.200 C 111.950 131.891,109.202 136.131,109.201 136.552 C 109.200 136.745,108.570 137.600,107.800 138.453 C 107.030 139.305,106.400 140.250,106.400 140.552 C 106.400 140.855,106.117 141.337,105.771 141.624 C 103.015 143.911,103.272 147.319,106.332 149.077 C 110.091 151.236,117.880 158.316,122.545 163.814 C 126.840 168.877,130.790 174.025,130.796 174.569 C 130.825 177.282,134.633 176.029,135.790 172.924 C 136.184 171.866,136.821 170.640,137.204 170.200 C 137.588 169.760,138.119 168.721,138.385 167.890 C 138.794 166.614,143.977 156.121,146.135 152.200 C 146.498 151.540,146.796 150.800,146.798 150.556 C 146.799 150.312,147.228 149.481,147.751 148.710 C 148.274 147.939,148.926 146.609,149.200 145.754 C 149.474 144.899,150.036 143.829,150.448 143.376 C 150.860 142.923,151.492 141.663,151.854 140.576 C 152.215 139.489,152.767 138.303,153.081 137.940 C 153.950 136.935,153.358 134.509,152.051 133.720 C 151.473 133.371,150.466 132.717,149.812 132.266 C 149.159 131.815,147.629 130.938,146.412 130.316 C 145.196 129.695,142.580 128.211,140.600 127.019 C 138.620 125.828,136.131 124.346,135.069 123.726 C 134.007 123.107,132.567 122.196,131.869 121.703 C 131.171 121.210,130.022 120.535,129.316 120.204 C 128.610 119.873,127.179 119.062,126.138 118.401 C 125.096 117.741,124.144 117.216,124.022 117.236 C 123.900 117.256,123.213 117.441,122.496 117.648 M276.228 118.600 C 275.145 119.370,274.027 120.000,273.744 120.000 C 273.460 120.000,272.637 120.513,271.914 121.140 C 271.191 121.767,270.135 122.393,269.566 122.531 C 268.998 122.669,267.848 123.326,267.011 123.991 C 266.175 124.656,265.289 125.200,265.044 125.200 C 264.798 125.200,263.711 125.830,262.628 126.600 C 261.545 127.370,260.435 128.000,260.160 128.000 C 259.886 128.000,259.124 128.452,258.466 129.005 C 257.809 129.558,256.582 130.299,255.739 130.651 C 254.896 131.003,253.733 131.676,253.154 132.146 C 252.575 132.616,251.557 133.296,250.891 133.658 C 249.186 134.585,248.888 136.274,250.000 138.706 C 251.180 141.286,256.336 151.962,256.999 153.200 C 258.940 156.818,264.400 167.919,264.400 168.247 C 264.400 168.465,264.846 169.249,265.390 169.987 C 265.935 170.725,266.588 171.975,266.841 172.765 C 267.835 175.866,270.410 177.177,271.525 175.150 C 271.896 174.476,272.783 173.177,273.496 172.262 C 274.209 171.348,274.794 170.442,274.796 170.248 C 274.800 169.924,275.564 168.956,278.781 165.200 C 283.648 159.516,293.454 150.522,296.742 148.725 C 299.319 147.317,299.492 144.749,297.186 142.123 C 296.534 141.380,296.000 140.542,296.000 140.261 C 296.000 139.980,295.460 139.232,294.800 138.600 C 294.140 137.968,293.599 137.259,293.599 137.025 C 293.598 136.791,293.193 135.987,292.699 135.237 C 288.115 128.285,285.095 123.783,284.355 122.800 C 283.941 122.250,283.159 120.965,282.617 119.945 C 281.925 118.641,281.253 117.957,280.356 117.645 C 278.547 117.014,278.417 117.044,276.228 118.600 M172.871 250.264 C 176.115 253.200,175.166 255.937,168.718 262.230 L 163.945 266.890 161.368 266.726 C 158.510 266.544,157.749 266.049,157.008 263.894 C 155.998 260.958,156.535 259.816,161.153 255.073 C 167.596 248.456,169.850 247.530,172.871 250.264 M184.282 261.651 C 188.704 264.384,185.135 271.300,175.688 278.300 C 171.818 281.168,166.281 275.904,168.564 271.528 C 169.277 270.162,176.154 263.042,177.993 261.766 C 179.792 260.518,182.372 260.470,184.282 261.651 M194.730 272.435 C 197.122 273.270,198.475 277.138,197.343 279.908 C 196.670 281.554,188.824 289.458,187.281 290.045 C 184.646 291.047,182.493 290.516,181.014 288.500 C 178.662 285.294,179.629 283.003,185.914 276.894 C 191.156 271.798,191.868 271.438,194.730 272.435 M207.600 285.172 C 208.150 285.556,209.025 286.631,209.544 287.561 L 210.488 289.251 209.132 291.434 C 203.219 300.961,193.338 305.166,191.915 298.764 C 191.230 295.684,191.757 294.665,196.541 289.806 C 202.260 283.998,204.548 283.039,207.600 285.172 M99.176 317.121 C 98.774 318.464,98.862 319.061,99.925 322.221 C 100.587 324.190,101.243 326.599,101.381 327.575 C 101.903 331.247,104.956 334.506,109.190 335.910 C 110.185 336.240,111.295 336.765,111.655 337.077 C 112.016 337.388,114.086 338.065,116.255 338.580 C 118.425 339.096,120.920 339.788,121.800 340.119 C 122.680 340.451,125.109 340.928,127.198 341.181 C 129.286 341.433,132.345 341.994,133.995 342.426 C 135.645 342.858,140.776 343.570,145.398 344.008 C 150.019 344.446,154.520 344.972,155.400 345.176 C 164.499 347.292,235.133 347.170,247.841 345.017 C 249.799 344.686,254.640 344.138,258.600 343.800 C 263.027 343.423,266.724 342.889,268.200 342.415 C 269.520 341.991,272.269 341.450,274.309 341.213 C 276.348 340.976,279.408 340.343,281.109 339.807 C 282.809 339.270,285.190 338.627,286.400 338.376 C 287.610 338.126,289.320 337.510,290.200 337.009 C 291.080 336.507,292.389 335.970,293.110 335.815 C 293.830 335.659,294.910 335.124,295.510 334.626 C 296.109 334.127,296.996 333.510,297.481 333.256 C 299.349 332.273,301.893 324.734,302.663 317.900 L 302.877 316.000 301.498 316.000 C 300.740 316.000,299.598 316.175,298.960 316.390 C 298.322 316.604,295.955 317.049,293.701 317.379 C 291.446 317.709,289.067 318.255,288.415 318.592 C 287.762 318.930,284.747 319.470,281.714 319.792 C 278.681 320.114,274.490 320.736,272.400 321.175 C 270.238 321.628,264.635 322.234,259.400 322.580 C 254.340 322.914,249.210 323.367,248.000 323.586 C 236.216 325.722,172.502 325.754,153.800 323.634 C 150.060 323.210,145.110 322.750,142.800 322.611 C 136.259 322.218,130.806 321.606,128.400 320.995 C 127.190 320.687,123.680 320.156,120.600 319.813 C 117.520 319.470,113.920 318.837,112.600 318.406 C 111.280 317.975,108.384 317.369,106.164 317.060 C 103.945 316.750,101.751 316.295,101.290 316.048 C 99.970 315.342,99.663 315.497,99.176 317.121 M3.280 322.880 C 2.634 323.526,2.676 324.199,3.400 324.800 C 3.915 325.227,4.000 325.092,4.000 323.849 C 4.000 322.241,3.966 322.194,3.280 322.880 M3.018 341.980 C 1.588 343.561,1.319 355.661,2.683 357.026 C 3.877 358.220,4.000 357.506,4.000 349.400 C 4.000 344.890,3.938 341.200,3.862 341.200 C 3.786 341.200,3.406 341.551,3.018 341.980 M4.093 370.896 C 4.074 373.375,4.640 374.400,6.029 374.400 C 6.716 374.400,6.800 374.099,6.800 371.644 L 6.800 368.888 5.456 368.731 L 4.111 368.574 4.093 370.896 M397.089 368.728 C 396.094 368.842,395.988 368.998,396.071 370.228 C 396.187 371.941,397.738 372.213,398.453 370.644 C 399.037 369.362,398.472 368.569,397.089 368.728 M6.977 376.916 C 6.473 378.230,7.064 379.355,8.336 379.500 C 9.571 379.641,9.600 379.607,9.600 378.022 C 9.600 376.353,7.528 375.479,6.977 376.916 M393.137 378.345 L 392.989 379.890 394.192 379.545 C 394.854 379.355,395.462 379.200,395.544 379.200 C 395.626 379.200,395.599 378.840,395.484 378.400 C 395.369 377.960,395.438 377.600,395.637 377.600 C 395.837 377.600,396.000 377.420,396.000 377.200 C 396.000 375.778,393.278 376.866,393.137 378.345 M391.789 381.617 C 391.659 381.828,391.608 382.014,391.676 382.031 C 392.674 382.278,393.200 382.270,393.200 382.007 C 393.200 381.506,392.054 381.189,391.789 381.617 M12.400 385.135 C 12.400 385.768,13.683 387.200,14.249 387.200 C 15.463 387.200,14.745 385.024,13.500 384.930 C 12.895 384.885,12.400 384.977,12.400 385.135 M16.400 388.200 C 16.674 388.530,17.050 388.800,17.236 388.800 C 17.423 388.800,17.471 388.530,17.345 388.200 C 17.218 387.870,16.842 387.600,16.508 387.600 C 16.015 387.600,15.995 387.712,16.400 388.200 M20.284 391.201 C 20.144 391.737,20.227 391.910,20.537 391.724 C 20.812 391.559,20.789 391.707,20.479 392.090 C 20.038 392.634,20.076 392.770,20.723 392.975 C 21.984 393.376,22.800 392.818,22.800 391.557 C 22.800 390.100,20.651 389.796,20.284 391.201 M381.900 390.665 C 382.644 390.965,382.504 391.519,381.700 391.456 C 381.315 391.425,381.000 391.670,381.000 392.000 C 381.000 392.330,380.820 392.732,380.600 392.894 C 380.366 393.066,380.449 393.185,380.800 393.181 C 381.130 393.178,381.725 392.729,382.121 392.184 C 382.854 391.177,382.742 390.374,381.876 390.432 C 381.533 390.454,381.539 390.519,381.900 390.665 M30.887 396.792 C 30.926 398.142,31.560 398.482,33.763 398.333 C 34.683 398.271,35.200 398.035,35.200 397.675 C 35.200 397.306,35.439 397.206,35.900 397.381 C 36.437 397.585,36.491 397.537,36.131 397.175 C 35.873 396.915,35.758 396.454,35.874 396.151 C 36.040 395.718,35.528 395.600,33.470 395.600 L 30.854 395.600 30.887 396.792 M368.247 396.221 C 368.102 396.600,368.174 396.739,368.434 396.579 C 368.674 396.431,368.645 396.659,368.367 397.104 C 368.050 397.612,367.576 397.828,367.037 397.711 C 366.412 397.576,366.339 397.629,366.748 397.919 C 367.447 398.413,370.400 398.469,370.400 397.987 C 370.400 397.788,370.701 397.741,371.069 397.882 C 371.577 398.077,371.677 397.977,371.482 397.469 C 371.341 397.101,371.399 396.800,371.613 396.800 C 371.826 396.800,372.000 396.530,372.000 396.200 C 372.000 395.337,368.579 395.356,368.247 396.221 " stroke="none" fill="#f8f6fb" fill-rule="evenodd"></path><path id="path1" d="M39.394 2.010 C 39.257 2.232,39.003 2.326,38.830 2.219 C 38.657 2.112,38.596 2.447,38.695 2.964 C 38.912 4.095,37.639 4.355,33.553 4.014 C 29.837 3.703,28.345 3.910,28.425 4.727 C 28.603 6.520,28.415 6.800,27.033 6.800 C 26.282 6.800,25.576 6.575,25.465 6.300 C 25.304 5.900,25.257 5.900,25.232 6.300 C 25.214 6.585,24.671 6.800,23.971 6.800 C 22.942 6.800,22.755 6.946,22.816 7.700 C 22.948 9.336,22.810 9.600,21.819 9.600 C 20.414 9.600,18.854 10.400,18.581 11.260 C 18.363 11.947,17.819 12.188,15.800 12.488 C 15.272 12.566,14.958 12.966,14.877 13.663 C 14.778 14.514,14.487 14.770,13.377 14.978 C 12.013 15.234,11.706 15.869,11.970 17.900 C 12.006 18.175,11.837 18.400,11.594 18.400 C 11.351 18.400,11.264 18.220,11.400 18.000 C 11.536 17.780,11.457 17.578,11.224 17.550 C 9.723 17.373,9.469 17.472,9.345 18.280 C 9.200 19.231,9.786 19.869,10.196 19.207 C 10.334 18.983,10.235 18.800,9.975 18.800 C 9.613 18.800,9.613 18.666,9.978 18.227 C 10.388 17.733,10.550 17.747,11.149 18.327 C 12.022 19.172,12.067 20.047,11.233 19.968 C 9.879 19.840,9.644 20.050,9.524 21.500 C 9.411 22.869,9.287 23.011,8.100 23.125 L 6.800 23.251 6.800 27.357 L 6.800 31.464 5.400 31.418 L 3.999 31.371 4.100 199.986 L 4.200 368.600 5.500 368.725 L 6.800 368.851 6.800 372.745 L 6.800 376.639 8.215 376.474 L 9.630 376.309 9.515 379.253 C 9.432 381.383,9.538 382.212,9.900 382.249 C 10.175 382.277,10.760 382.322,11.200 382.350 C 11.829 382.389,12.000 382.683,12.000 383.722 C 12.000 384.951,12.091 385.043,13.300 385.022 C 14.505 385.002,14.600 385.095,14.596 386.300 C 14.593 387.502,14.691 387.600,15.896 387.600 C 16.648 387.600,17.220 387.812,17.246 388.100 C 17.272 388.375,17.334 388.780,17.385 389.000 C 17.436 389.220,17.506 389.625,17.539 389.900 C 17.573 390.175,18.139 390.400,18.800 390.400 C 19.930 390.400,20.258 390.858,20.037 392.130 C 20.006 392.311,20.148 392.356,20.353 392.229 C 20.557 392.103,20.631 391.639,20.516 391.200 C 20.340 390.526,20.504 390.400,21.553 390.400 C 22.870 390.400,23.489 392.484,22.300 392.914 C 22.025 393.013,22.498 393.100,23.352 393.107 C 24.886 393.120,25.750 393.767,25.423 394.661 C 25.165 395.370,26.598 395.589,31.543 395.595 C 35.236 395.599,36.046 395.703,35.874 396.151 C 35.758 396.454,35.873 396.915,36.131 397.175 C 36.491 397.537,36.437 397.585,35.900 397.381 C 35.414 397.196,35.200 397.310,35.200 397.753 C 35.200 398.336,49.513 398.391,201.300 398.391 C 319.846 398.390,367.228 398.267,366.800 397.961 C 366.309 397.609,366.353 397.564,367.037 397.711 C 367.576 397.828,368.050 397.612,368.367 397.104 C 368.645 396.659,368.674 396.431,368.434 396.579 C 368.174 396.739,368.102 396.600,368.247 396.221 C 368.440 395.719,369.228 395.600,372.363 395.600 C 376.362 395.600,377.200 395.309,377.200 393.920 C 377.200 393.367,377.517 393.200,378.567 393.200 C 380.369 393.200,381.196 392.855,380.947 392.207 C 380.686 391.526,381.549 390.989,382.070 391.510 C 382.336 391.776,382.304 392.012,381.973 392.217 C 381.653 392.415,381.578 392.359,381.762 392.062 C 381.919 391.808,381.837 391.600,381.581 391.600 C 381.320 391.600,381.221 391.879,381.357 392.233 C 381.491 392.581,381.600 392.963,381.600 393.082 C 381.600 393.201,381.870 393.074,382.200 392.800 C 382.956 392.173,382.955 391.812,382.196 391.053 C 381.657 390.514,381.668 390.454,382.296 390.498 C 384.149 390.626,385.200 390.009,385.200 388.792 C 385.200 387.696,385.313 387.600,386.600 387.600 C 387.882 387.600,388.000 387.501,388.000 386.425 C 388.000 385.399,388.160 385.235,389.269 385.125 C 390.339 385.020,390.562 384.813,390.695 383.807 C 390.883 382.382,390.890 382.374,391.927 382.296 C 392.377 382.262,392.655 382.088,392.545 381.910 C 392.435 381.733,392.149 381.708,391.911 381.855 C 391.658 382.012,391.591 381.938,391.751 381.679 C 391.902 381.435,392.306 381.343,392.649 381.474 C 393.117 381.654,393.252 381.475,393.192 380.757 C 392.909 377.392,393.120 376.800,394.600 376.800 L 396.000 376.800 396.042 373.900 C 396.066 372.305,396.054 370.527,396.017 369.949 C 395.960 369.060,396.141 368.870,397.192 368.716 C 398.134 368.578,398.383 368.668,398.222 369.088 C 398.105 369.392,398.187 369.532,398.404 369.398 C 398.662 369.238,398.796 310.718,398.792 199.877 C 398.788 106.775,398.653 30.781,398.493 31.001 C 398.332 31.222,397.705 31.460,397.100 31.530 L 396.000 31.657 395.953 27.529 C 395.927 25.258,395.927 23.265,395.953 23.100 C 395.979 22.935,395.381 22.800,394.625 22.800 C 393.367 22.800,393.240 22.690,393.125 21.500 C 393.016 20.365,392.839 20.184,391.734 20.077 L 390.468 19.954 390.607 17.684 C 390.754 15.276,390.482 14.817,388.900 14.806 C 388.142 14.801,388.000 14.582,388.000 13.424 C 388.000 12.123,387.919 12.042,386.500 11.924 C 385.233 11.819,385.000 11.656,385.000 10.872 C 385.000 10.361,384.660 9.754,384.245 9.521 C 383.659 9.193,383.561 9.213,383.807 9.611 C 384.030 9.973,383.965 10.026,383.585 9.791 C 383.289 9.608,382.272 9.499,381.324 9.548 L 379.600 9.637 379.600 8.218 L 379.600 6.800 377.000 6.800 C 374.978 6.800,374.389 6.667,374.350 6.200 C 374.322 5.870,374.255 5.420,374.200 5.200 C 374.145 4.980,374.078 4.620,374.050 4.400 C 374.019 4.155,371.833 4.000,368.400 4.000 C 362.607 4.000,361.132 3.408,363.500 2.033 C 363.975 1.758,312.010 1.624,201.921 1.617 C 93.361 1.610,39.560 1.741,39.394 2.010 M207.800 54.642 C 210.679 56.414,212.737 58.347,214.341 60.784 L 215.800 63.000 215.800 68.000 L 215.800 73.000 214.240 75.400 C 213.383 76.720,211.808 78.584,210.740 79.542 C 208.354 81.684,208.442 82.800,211.405 88.000 C 211.984 89.018,212.736 90.565,213.783 92.900 C 214.104 93.615,214.628 94.650,214.947 95.200 C 215.266 95.750,217.014 99.260,218.831 103.000 C 220.648 106.740,222.439 110.250,222.812 110.800 C 223.184 111.350,223.719 112.520,224.000 113.400 C 224.281 114.280,224.810 115.450,225.175 116.000 C 225.540 116.550,226.702 118.800,227.757 121.000 C 228.812 123.200,229.938 125.450,230.259 126.000 C 230.581 126.550,231.105 127.630,231.425 128.400 C 231.745 129.170,232.273 130.250,232.598 130.800 C 232.923 131.350,233.564 132.610,234.022 133.600 C 235.179 136.103,238.307 142.394,238.993 143.600 C 239.306 144.150,239.920 145.410,240.357 146.400 C 240.795 147.390,241.420 148.650,241.747 149.200 C 242.074 149.750,243.901 153.350,245.808 157.200 C 247.714 161.050,249.516 164.650,249.812 165.200 C 250.108 165.750,252.102 169.800,254.244 174.200 C 256.386 178.600,258.201 182.324,258.278 182.476 C 258.687 183.286,255.789 185.637,253.658 186.225 C 252.416 186.568,250.230 187.361,248.800 187.988 C 247.370 188.616,245.570 189.257,244.800 189.413 C 244.030 189.569,242.680 190.103,241.800 190.599 C 240.920 191.095,239.300 191.717,238.200 191.981 C 237.100 192.244,235.654 192.797,234.987 193.209 C 234.320 193.621,232.880 194.155,231.787 194.397 C 230.694 194.638,228.990 195.254,228.000 195.765 C 227.010 196.275,225.168 196.991,223.908 197.356 C 222.647 197.720,221.002 198.380,220.252 198.823 C 219.501 199.265,217.923 199.722,216.744 199.838 C 215.565 199.953,213.430 200.564,212.000 201.195 C 210.570 201.826,208.590 202.606,207.600 202.928 C 201.495 204.915,201.782 204.682,187.095 219.531 C 183.065 223.605,180.904 225.681,179.633 226.700 C 178.325 227.749,178.721 228.544,181.168 229.784 C 183.246 230.837,188.463 231.269,188.981 230.431 C 189.107 230.227,190.152 229.750,191.305 229.369 C 193.150 228.760,194.331 227.755,201.213 220.940 C 205.511 216.684,209.707 212.855,210.538 212.431 L 212.050 211.661 213.725 212.794 C 214.646 213.417,217.290 215.845,219.600 218.190 C 221.910 220.535,225.870 224.500,228.400 227.001 C 230.930 229.502,237.273 235.790,242.495 240.974 C 253.313 251.714,252.837 251.450,257.406 249.244 C 258.723 248.608,260.430 247.960,261.200 247.805 C 265.866 246.861,266.641 245.602,266.991 238.400 C 267.145 235.210,267.603 231.070,268.007 229.200 C 268.411 227.330,269.019 223.777,269.358 221.304 C 269.698 218.831,270.255 216.268,270.596 215.608 C 270.937 214.949,271.503 213.012,271.855 211.305 C 272.207 209.597,272.899 207.390,273.392 206.400 C 273.886 205.410,274.511 203.664,274.780 202.520 C 275.050 201.376,275.518 200.234,275.820 199.983 C 276.122 199.732,276.745 198.525,277.203 197.300 C 277.662 196.074,278.359 194.606,278.752 194.036 C 279.146 193.466,279.782 192.190,280.167 191.200 C 280.552 190.210,281.104 189.130,281.394 188.800 C 281.683 188.470,282.204 187.514,282.550 186.676 C 282.896 185.837,283.554 184.667,284.011 184.076 C 284.468 183.484,285.769 181.560,286.901 179.800 C 288.914 176.671,290.698 174.201,292.103 172.599 C 294.172 170.239,298.316 165.291,298.819 164.580 C 299.819 163.167,308.053 155.668,311.197 153.307 C 312.849 152.067,314.380 150.848,314.600 150.600 C 315.011 150.135,319.270 147.223,321.620 145.800 C 326.315 142.957,327.800 142.106,331.200 140.312 C 333.290 139.210,335.207 138.141,335.460 137.938 C 335.750 137.705,335.972 135.659,336.060 132.413 C 336.186 127.778,336.291 127.144,337.104 126.129 C 337.600 125.508,338.164 124.640,338.356 124.199 C 340.449 119.395,351.001 115.684,355.512 118.167 C 356.110 118.496,357.320 119.115,358.200 119.542 C 359.689 120.265,361.695 122.239,363.939 125.186 C 367.495 129.860,365.334 139.996,359.897 144.146 C 357.156 146.239,356.731 146.388,352.106 146.881 C 347.504 147.372,346.800 147.640,346.800 148.902 C 346.800 149.343,346.270 151.256,345.623 153.153 C 344.976 155.049,344.230 157.860,343.966 159.400 C 343.702 160.940,343.074 163.297,342.570 164.638 C 342.066 165.978,341.529 168.228,341.376 169.638 C 341.223 171.047,340.675 173.220,340.158 174.467 C 339.641 175.714,339.014 178.054,338.765 179.667 C 338.516 181.280,337.897 183.706,337.390 185.058 C 336.883 186.410,336.255 188.930,335.994 190.658 C 335.734 192.386,335.167 194.581,334.735 195.535 C 334.302 196.489,333.691 198.649,333.377 200.335 C 333.063 202.021,332.450 204.210,332.014 205.200 C 331.579 206.190,330.945 208.678,330.606 210.730 C 330.267 212.781,329.722 214.977,329.395 215.610 C 329.067 216.243,328.427 218.694,327.971 221.057 C 327.515 223.419,326.897 225.827,326.597 226.406 C 326.297 226.985,325.761 229.066,325.406 231.030 C 325.051 232.993,324.423 235.412,324.010 236.404 C 323.598 237.396,322.989 239.765,322.656 241.669 C 322.324 243.573,321.690 246.001,321.248 247.065 C 320.806 248.129,320.252 250.309,320.017 251.909 C 319.782 253.509,319.224 255.759,318.776 256.909 C 318.329 258.059,317.698 260.593,317.373 262.540 C 317.049 264.487,316.432 266.851,316.003 267.794 C 315.573 268.738,315.020 270.835,314.773 272.455 C 314.527 274.075,313.898 276.480,313.375 277.800 C 312.853 279.120,312.246 281.468,312.026 283.017 C 311.806 284.567,311.188 287.000,310.652 288.424 C 310.116 289.849,309.556 291.911,309.408 293.007 C 309.172 294.749,307.542 300.366,306.296 303.731 C 305.737 305.241,304.738 305.824,301.400 306.587 C 299.860 306.939,297.700 307.558,296.600 307.963 C 295.500 308.368,292.980 308.922,291.000 309.193 C 289.020 309.464,286.331 310.038,285.024 310.469 C 283.663 310.917,280.045 311.490,276.551 311.811 C 273.197 312.118,269.278 312.643,267.842 312.976 C 264.937 313.649,259.659 314.169,249.200 314.811 C 245.350 315.048,240.220 315.408,237.800 315.612 C 223.816 316.790,219.997 316.887,195.891 316.673 C 182.201 316.552,169.470 316.270,167.600 316.046 C 162.839 315.477,155.454 314.890,146.867 314.399 C 142.834 314.168,137.704 313.629,135.467 313.201 C 133.230 312.773,128.700 312.153,125.400 311.824 C 122.100 311.495,118.590 310.953,117.600 310.620 C 116.610 310.287,113.621 309.669,110.958 309.247 C 108.295 308.826,105.554 308.190,104.869 307.835 C 104.183 307.481,102.228 306.924,100.525 306.598 C 96.102 305.752,94.697 303.623,93.368 295.755 C 93.000 293.580,92.372 291.152,91.973 290.361 C 91.573 289.569,90.954 287.229,90.597 285.161 C 90.241 283.092,89.679 280.860,89.349 280.200 C 89.019 279.540,88.419 277.182,88.016 274.960 C 87.612 272.738,86.981 270.338,86.614 269.627 C 86.246 268.916,85.672 266.594,85.337 264.467 C 85.002 262.340,84.400 259.846,83.997 258.923 C 83.595 258.001,83.049 255.841,82.784 254.123 C 82.519 252.406,81.888 250.010,81.381 248.800 C 80.874 247.590,80.177 244.837,79.831 242.683 C 79.486 240.529,78.926 238.231,78.588 237.577 C 78.250 236.923,77.638 234.528,77.228 232.254 C 76.818 229.980,76.203 227.579,75.862 226.919 C 75.520 226.259,74.980 224.099,74.661 222.119 C 74.343 220.138,73.787 217.949,73.428 217.253 C 73.068 216.558,72.438 214.146,72.028 211.894 C 71.618 209.642,70.928 206.900,70.494 205.800 C 70.060 204.700,69.489 202.540,69.225 201.000 C 68.961 199.460,68.391 197.397,67.957 196.415 C 67.524 195.433,66.974 193.273,66.734 191.615 C 66.494 189.957,65.866 187.560,65.339 186.288 C 64.811 185.016,64.184 182.496,63.944 180.688 C 63.705 178.880,63.097 176.410,62.594 175.200 C 62.090 173.990,61.550 171.920,61.392 170.600 C 61.234 169.280,60.606 166.670,59.996 164.800 C 59.386 162.930,58.756 160.410,58.595 159.200 C 58.435 157.990,57.898 155.830,57.401 154.400 C 56.905 152.970,56.274 150.948,56.000 149.908 C 55.319 147.329,54.970 147.136,50.437 146.821 C 37.417 145.918,32.258 130.087,42.142 121.366 C 52.170 112.518,66.445 119.252,66.676 132.940 C 66.762 138.010,66.928 138.425,69.090 138.981 C 69.579 139.107,70.639 139.658,71.445 140.205 C 72.252 140.752,73.122 141.200,73.378 141.200 C 73.635 141.200,74.465 141.663,75.222 142.228 C 75.980 142.793,77.201 143.511,77.936 143.822 C 78.670 144.134,79.791 144.826,80.426 145.360 C 81.060 145.894,82.214 146.541,82.990 146.797 C 83.765 147.053,84.400 147.408,84.400 147.585 C 84.400 147.763,85.499 148.694,86.843 149.654 C 88.187 150.614,90.046 152.030,90.975 152.800 C 91.904 153.570,93.542 154.920,94.617 155.800 C 98.664 159.116,104.599 164.889,106.335 167.200 C 106.913 167.970,108.470 169.895,109.793 171.478 C 112.549 174.773,114.097 176.812,115.334 178.772 C 115.810 179.527,116.862 181.147,117.672 182.372 C 118.481 183.597,119.512 185.380,119.964 186.333 C 120.415 187.286,121.238 188.605,121.792 189.263 C 122.346 189.922,122.800 190.741,122.800 191.082 C 122.800 191.423,123.320 192.625,123.955 193.751 C 124.591 194.878,125.246 196.248,125.412 196.795 C 125.578 197.342,126.121 198.422,126.619 199.195 C 127.116 199.968,127.823 201.660,128.189 202.956 C 128.555 204.252,129.104 205.692,129.408 206.156 C 129.712 206.620,130.330 208.586,130.782 210.523 C 131.234 212.461,131.877 214.576,132.212 215.222 C 132.546 215.869,133.081 218.382,133.401 220.808 C 133.721 223.233,134.244 226.249,134.564 227.509 C 135.435 230.943,135.612 232.687,135.944 241.067 C 136.286 249.738,136.286 249.738,139.322 250.389 C 140.461 250.633,142.328 251.276,143.472 251.817 C 145.641 252.843,150.394 254.000,152.440 254.000 C 153.408 254.000,154.427 253.219,157.973 249.755 C 167.756 240.198,174.719 240.304,179.800 250.088 C 182.112 254.541,182.612 255.200,183.675 255.200 C 187.071 255.200,191.670 259.749,192.205 263.637 C 192.500 265.783,192.866 266.126,195.343 266.574 C 198.821 267.202,203.155 271.342,203.191 274.069 C 203.208 275.353,205.333 277.258,208.555 278.878 C 210.340 279.775,212.880 281.449,214.200 282.598 C 217.660 285.609,219.346 285.819,221.810 283.548 C 225.819 279.852,225.445 279.142,212.976 266.755 C 196.069 249.960,194.993 248.353,200.037 247.446 C 201.970 247.098,202.188 247.285,215.382 260.571 C 224.361 269.612,226.744 271.797,228.448 272.549 L 230.533 273.469 232.263 272.503 C 234.217 271.410,234.429 271.157,235.030 269.200 C 235.897 266.374,235.306 265.595,222.968 253.288 C 210.444 240.795,209.267 239.370,210.005 237.587 C 211.593 233.753,212.015 234.034,226.735 248.711 C 233.220 255.177,238.959 260.632,239.489 260.834 C 244.720 262.823,249.303 257.588,246.110 253.273 C 244.591 251.221,212.464 219.200,211.924 219.200 C 211.682 219.200,211.105 219.567,210.642 220.015 C 205.461 225.032,197.998 232.178,197.229 232.857 C 196.695 233.329,195.190 234.133,193.885 234.645 C 192.580 235.157,191.241 235.800,190.909 236.075 C 189.507 237.239,182.877 236.983,179.533 235.636 C 177.847 234.956,176.289 234.400,176.071 234.400 C 175.854 234.400,174.920 233.768,173.995 232.996 C 173.071 232.224,172.052 231.445,171.731 231.265 C 171.410 231.086,170.996 230.267,170.810 229.446 L 170.474 227.954 181.137 217.199 C 194.782 203.436,194.180 204.099,193.622 203.426 C 193.372 203.125,192.680 202.761,192.084 202.617 C 191.488 202.473,190.138 201.910,189.085 201.366 C 188.032 200.822,185.737 200.127,183.985 199.821 C 182.233 199.515,180.214 198.904,179.500 198.463 C 178.785 198.021,177.300 197.443,176.200 197.176 C 175.100 196.910,173.660 196.373,173.000 195.982 C 172.340 195.591,170.720 194.965,169.400 194.590 C 168.080 194.216,166.460 193.584,165.800 193.185 C 165.140 192.787,163.700 192.239,162.600 191.969 C 161.500 191.698,159.790 191.064,158.800 190.560 C 157.810 190.056,156.100 189.426,155.000 189.161 C 153.900 188.895,152.524 188.347,151.942 187.942 C 151.359 187.536,149.739 186.914,148.342 186.559 C 144.328 185.540,143.374 183.748,145.320 180.889 C 145.878 180.070,146.502 178.770,146.709 178.000 C 146.915 177.230,147.560 175.900,148.142 175.044 C 148.724 174.188,149.200 173.179,149.200 172.800 C 149.200 172.421,149.659 171.436,150.219 170.610 C 150.780 169.784,151.580 168.209,151.998 167.109 C 152.415 166.010,153.023 164.815,153.348 164.455 C 153.673 164.095,154.319 162.781,154.785 161.536 C 155.250 160.291,155.893 159.054,156.215 158.787 C 156.537 158.520,156.800 158.125,156.800 157.908 C 156.800 157.537,160.057 150.503,160.831 149.200 C 161.028 148.870,162.194 146.530,163.423 144.000 C 164.652 141.470,165.926 138.950,166.253 138.400 C 166.580 137.850,167.205 136.590,167.643 135.600 C 168.080 134.610,168.709 133.350,169.041 132.800 C 169.372 132.250,169.905 131.170,170.225 130.400 C 170.545 129.630,171.073 128.550,171.398 128.000 C 171.723 127.450,172.357 126.190,172.806 125.200 C 173.255 124.210,173.884 122.950,174.204 122.400 C 174.524 121.850,175.060 120.770,175.395 120.000 C 175.729 119.230,176.273 118.105,176.602 117.500 C 177.852 115.201,178.417 114.079,180.376 110.000 C 181.485 107.690,182.656 105.350,182.978 104.800 C 183.299 104.250,183.933 102.990,184.387 102.000 C 184.840 101.010,185.467 99.750,185.781 99.200 C 186.094 98.650,186.690 97.480,187.105 96.600 C 187.520 95.720,188.149 94.460,188.503 93.800 C 190.040 90.935,193.577 83.313,193.801 82.382 C 194.008 81.519,193.742 81.108,192.053 79.683 C 186.758 75.218,184.694 65.633,188.067 61.173 C 192.942 54.726,195.829 53.136,202.259 53.358 C 205.473 53.469,206.148 53.625,207.800 54.642 M126.138 118.401 C 127.179 119.062,128.610 119.873,129.316 120.204 C 130.022 120.535,131.171 121.210,131.869 121.703 C 132.567 122.196,134.007 123.107,135.069 123.726 C 136.131 124.346,138.620 125.828,140.600 127.019 C 142.580 128.211,145.196 129.695,146.412 130.316 C 147.629 130.938,149.159 131.815,149.812 132.266 C 150.466 132.717,151.473 133.371,152.051 133.720 C 153.358 134.509,153.950 136.935,153.081 137.940 C 152.767 138.303,152.215 139.489,151.854 140.576 C 151.492 141.663,150.860 142.923,150.448 143.376 C 150.036 143.829,149.474 144.899,149.200 145.754 C 148.926 146.609,148.274 147.939,147.751 148.710 C 147.228 149.481,146.799 150.312,146.798 150.556 C 146.796 150.800,146.498 151.540,146.135 152.200 C 143.977 156.121,138.794 166.614,138.385 167.890 C 138.119 168.721,137.588 169.760,137.204 170.200 C 136.821 170.640,136.184 171.866,135.790 172.924 C 134.633 176.029,130.825 177.282,130.796 174.569 C 130.790 174.025,126.840 168.877,122.545 163.814 C 117.880 158.316,110.091 151.236,106.332 149.077 C 103.272 147.319,103.015 143.911,105.771 141.624 C 106.117 141.337,106.400 140.855,106.400 140.552 C 106.400 140.250,107.030 139.305,107.800 138.453 C 108.570 137.600,109.200 136.745,109.201 136.552 C 109.202 136.131,111.950 131.891,113.317 130.200 C 113.851 129.540,114.592 128.407,114.964 127.681 C 115.336 126.956,115.895 126.056,116.206 125.681 C 117.204 124.482,118.704 122.259,119.966 120.112 C 121.093 118.195,121.976 117.569,124.022 117.236 C 124.144 117.216,125.096 117.741,126.138 118.401 M280.356 117.645 C 281.253 117.957,281.925 118.641,282.617 119.945 C 283.159 120.965,283.941 122.250,284.355 122.800 C 285.095 123.783,288.115 128.285,292.699 135.237 C 293.193 135.987,293.598 136.791,293.599 137.025 C 293.599 137.259,294.140 137.968,294.800 138.600 C 295.460 139.232,296.000 139.980,296.000 140.261 C 296.000 140.542,296.534 141.380,297.186 142.123 C 299.492 144.749,299.319 147.317,296.742 148.725 C 293.454 150.522,283.648 159.516,278.781 165.200 C 275.564 168.956,274.800 169.924,274.796 170.248 C 274.794 170.442,274.209 171.348,273.496 172.262 C 272.783 173.177,271.896 174.476,271.525 175.150 C 270.410 177.177,267.835 175.866,266.841 172.765 C 266.588 171.975,265.935 170.725,265.390 169.987 C 264.846 169.249,264.400 168.465,264.400 168.247 C 264.400 167.919,258.940 156.818,256.999 153.200 C 256.336 151.962,251.180 141.286,250.000 138.706 C 248.888 136.274,249.186 134.585,250.891 133.658 C 251.557 133.296,252.575 132.616,253.154 132.146 C 253.733 131.676,254.896 131.003,255.739 130.651 C 256.582 130.299,257.809 129.558,258.466 129.005 C 259.124 128.452,259.886 128.000,260.160 128.000 C 260.435 128.000,261.545 127.370,262.628 126.600 C 263.711 125.830,264.798 125.200,265.044 125.200 C 265.289 125.200,266.175 124.656,267.011 123.991 C 267.848 123.326,268.998 122.669,269.566 122.531 C 270.135 122.393,271.191 121.767,271.914 121.140 C 272.637 120.513,273.460 120.000,273.744 120.000 C 274.027 120.000,275.145 119.370,276.228 118.600 C 278.417 117.044,278.547 117.014,280.356 117.645 M167.372 249.580 C 164.059 251.480,156.946 259.103,156.725 260.989 C 156.298 264.646,157.797 266.498,161.368 266.726 L 163.945 266.890 168.718 262.230 C 174.453 256.633,175.240 255.268,174.243 252.657 C 172.877 249.081,170.275 247.916,167.372 249.580 M177.993 261.766 C 176.154 263.042,169.277 270.162,168.564 271.528 C 166.281 275.904,171.818 281.168,175.688 278.300 C 180.184 274.968,186.400 267.948,186.400 266.203 C 186.400 261.536,181.814 259.116,177.993 261.766 M191.000 272.389 C 189.188 273.156,181.637 281.041,180.618 283.230 C 178.417 287.959,182.306 291.937,187.281 290.045 C 188.824 289.458,196.670 281.554,197.343 279.908 C 199.178 275.417,195.145 270.635,191.000 272.389 M202.400 284.672 C 199.975 285.720,192.125 294.047,191.846 295.867 C 191.092 300.788,195.360 303.631,199.680 301.086 C 201.981 299.730,207.448 294.148,209.132 291.434 L 210.488 289.251 209.544 287.561 C 207.889 284.598,205.142 283.487,202.400 284.672 M101.290 316.048 C 101.751 316.295,103.945 316.750,106.164 317.060 C 108.384 317.369,111.280 317.975,112.600 318.406 C 113.920 318.837,117.520 319.470,120.600 319.813 C 123.680 320.156,127.190 320.687,128.400 320.995 C 130.806 321.606,136.259 322.218,142.800 322.611 C 145.110 322.750,150.060 323.210,153.800 323.634 C 172.502 325.754,236.216 325.722,248.000 323.586 C 249.210 323.367,254.340 322.914,259.400 322.580 C 264.635 322.234,270.238 321.628,272.400 321.175 C 274.490 320.736,278.681 320.114,281.714 319.792 C 284.747 319.470,287.762 318.930,288.415 318.592 C 289.067 318.255,291.446 317.709,293.701 317.379 C 295.955 317.049,298.322 316.604,298.960 316.390 C 299.598 316.175,300.740 316.000,301.498 316.000 L 302.877 316.000 302.663 317.900 C 301.893 324.734,299.349 332.273,297.481 333.256 C 296.996 333.510,296.109 334.127,295.510 334.626 C 294.910 335.124,293.830 335.659,293.110 335.815 C 292.389 335.970,291.080 336.507,290.200 337.009 C 289.320 337.510,287.610 338.126,286.400 338.376 C 285.190 338.627,282.809 339.270,281.109 339.807 C 279.408 340.343,276.348 340.976,274.309 341.213 C 272.269 341.450,269.520 341.991,268.200 342.415 C 266.724 342.889,263.027 343.423,258.600 343.800 C 254.640 344.138,249.799 344.686,247.841 345.017 C 235.133 347.170,164.499 347.292,155.400 345.176 C 154.520 344.972,150.019 344.446,145.398 344.008 C 140.776 343.570,135.645 342.858,133.995 342.426 C 132.345 341.994,129.286 341.433,127.198 341.181 C 125.109 340.928,122.680 340.451,121.800 340.119 C 120.920 339.788,118.425 339.096,116.255 338.580 C 114.086 338.065,112.016 337.388,111.655 337.077 C 111.295 336.765,110.185 336.240,109.190 335.910 C 104.956 334.506,101.903 331.247,101.381 327.575 C 101.243 326.599,100.587 324.190,99.925 322.221 C 98.288 317.358,98.865 314.750,101.290 316.048 " stroke="none" fill="#633dec" fill-rule="evenodd"></path></g></svg>