<?xml version="1.0" encoding="UTF-8" standalone="no" ?>
<!DOCTYPE svg PUBLIC "-//W3C//DTD SVG 1.1//EN" "http://www.w3.org/Graphics/SVG/1.1/DTD/svg11.dtd">
<svg xmlns="http://www.w3.org/2000/svg" xmlns:xlink="http://www.w3.org/1999/xlink" version="1.1" width="1080" height="1080" viewBox="0 0 1080 1080" xml:space="preserve">
<desc>Created with Fabric.js 5.2.4</desc>
<defs>
</defs>
<rect x="0" y="0" width="100%" height="100%" fill="transparent"></rect>
<g transform="matrix(1 0 0 1 540 540)" id="978b3250-10ea-40b9-930b-1cdf60768a38"  >
</g>
<g transform="matrix(1 0 0 1 540 540)" id="6d543b37-4ca2-4bbe-9090-e3924a753b9f"  >
<rect style="stroke: none; stroke-width: 1; stroke-dasharray: none; stroke-linecap: butt; stroke-dashoffset: 0; stroke-linejoin: miter; stroke-miterlimit: 4; fill: rgb(255,255,255); fill-rule: nonzero; opacity: 1; visibility: hidden;" vector-effect="non-scaling-stroke"  x="-540" y="-540" rx="0" ry="0" width="1080" height="1080" />
</g>
<g transform="matrix(0.58 0 0 0.58 152.91 608.5)"  >
<polygon style="stroke: none; stroke-width: 1; stroke-dasharray: none; stroke-linecap: butt; stroke-dashoffset: 0; stroke-linejoin: miter; stroke-miterlimit: 4; fill: rgb(0,0,0); fill-rule: nonzero; opacity: 1;" vector-effect="non-scaling-stroke"  points="0.05,-0.05 -0.05,0.05 -0.05,-0.05 " />
</g>
<g transform="matrix(0.58 0 0 0.58 194.82 465.7)"  >
<polygon style="stroke: none; stroke-width: 1; stroke-dasharray: none; stroke-linecap: butt; stroke-dashoffset: 0; stroke-linejoin: miter; stroke-miterlimit: 4; fill: rgb(0,0,0); fill-rule: nonzero; opacity: 1;" vector-effect="non-scaling-stroke"  points="0.1,0.05 -0.1,0.05 0,-0.05 0,-0.05 " />
</g>
<g transform="matrix(2.78 0 0 2.78 324.85 449.84)"  >
<path style="stroke: none; stroke-width: 1; stroke-dasharray: none; stroke-linecap: butt; stroke-dashoffset: 0; stroke-linejoin: miter; stroke-miterlimit: 4; fill: rgb(0,0,0); fill-rule: nonzero; opacity: 1;" vector-effect="non-scaling-stroke"  transform=" translate(-131.3, -170.35)" d="M 245.9 35.2 L 245.9 82.80000000000001 L 245.8 82.9 L 195.60000000000002 127.9 L 176.8 266 L 173.70000000000002 265.1 L 164.00000000000003 262.20000000000005 L 159.80000000000004 276.6 L 173.60000000000005 277.1 L 181.60000000000005 277.40000000000003 L 173.60000000000005 304.6 L 173.10000000000005 306.40000000000003 L 164.00000000000006 311.3 L 173.60000000000005 328.8 L 39.60000000000005 328.7 C 26.900000000000052 328.7 16.700000000000053 318.5 16.700000000000053 305.8 L 16.900000000000052 34.80000000000001 C 16.900000000000052 22.100000000000012 27.200000000000053 11.900000000000013 39.800000000000054 11.900000000000013 L 223 12.3 C 235.7 12.3 245.9 22.5 245.9 35.2 z" stroke-linecap="round" />
</g>
<g transform="matrix(0.58 0 0 0.58 194.78 465.7)"  >
<polygon style="stroke: none; stroke-width: 1; stroke-dasharray: none; stroke-linecap: butt; stroke-dashoffset: 0; stroke-linejoin: miter; stroke-miterlimit: 4; fill: rgb(0,0,0); fill-rule: nonzero; opacity: 1;" vector-effect="non-scaling-stroke"  points="0.05,-0.05 0.05,0.05 -0.05,0.05 " />
</g>
<g transform="matrix(2.78 0 0 2.78 760.61 636)"  >
<path style="stroke: none; stroke-width: 1; stroke-dasharray: none; stroke-linecap: butt; stroke-dashoffset: 0; stroke-linejoin: miter; stroke-miterlimit: 4; fill: rgb(81,45,168); fill-rule: nonzero; opacity: 1;" vector-effect="non-scaling-stroke"  transform=" translate(-288.15, -241.45)" d="M 402.8 105.9 L 402.6 376.9 C 402.6 389.59999999999997 392.40000000000003 399.79999999999995 379.70000000000005 399.79999999999995 L 196.40000000000003 399.69999999999993 C 183.70000000000005 399.69999999999993 173.50000000000003 389.49999999999994 173.50000000000003 376.79999999999995 L 173.50000000000003 329.09999999999997 L 173.50000000000003 329.09999999999997 L 191.00000000000003 319.59999999999997 L 186.00000000000003 310.49999999999994 L 194.50000000000003 281.49999999999994 L 213.40000000000003 292.59999999999997 L 217.60000000000002 278.2 L 204.8 274.5 L 245.5 186.9 L 263.5 148.10000000000002 L 245.6 83.10000000000002 L 379.6 83.20000000000002 C 392.6 83 402.8 93.2 402.8 105.9 z" stroke-linecap="round" />
</g>
<g transform="matrix(0.58 0 0 0.58 152.91 608.5)"  >
<polygon style="stroke: none; stroke-width: 1; stroke-dasharray: none; stroke-linecap: butt; stroke-dashoffset: 0; stroke-linejoin: miter; stroke-miterlimit: 4; fill: rgb(0,0,0); fill-rule: nonzero; opacity: 1;" vector-effect="non-scaling-stroke"  points="0.05,-0.05 -0.05,0.05 -0.05,-0.05 " />
</g>
</svg>